# File created by Blade
# Date/Time:  Tue Sep 30 19:31:19 2014
#---------------------------------------------------------
:version 1.10
:name HOM
:units
  mass 1.0
  length 1.000000
  angle deg
:documentation
     Acclaim Skeleton File
:root
   axis xyz
   order TX TY TZ RX RY RZ
   position 0.000000 0.000000 0.000000
   orientation 0 0 0
:bonedata
   begin
      id 1
      name Spine_dum
      direction 0.000000 1.000000 0.000000
      length 3.241213
      axis 0.0 0.0 0.0 xyz
   end
   begin
      id 2
      name LeftUpLeg_dum
      direction 1.000000 0.000000 0.000000
      length 3.434019
      axis 0.0 0.0 0.0 xyz
   end
   begin
      id 3
      name RightUpLeg_dum
      direction -1.000000 0.000000 0.000000
      length 3.434019
      axis 0.0 0.0 0.0 xyz
   end
   begin
      id 4
      name Spine
      direction 0.000000 1.000000 0.000000
      length 0.000000
      axis 0.0 0.0 0.0 xyz
      dof rx ry rz
   end
   begin
      id 5
      name Spine_dum1
      direction 0.000000 1.000000 0.000000
      length 18.382958
      axis 0.0 0.0 0.0 xyz
   end
   begin
      id 6
      name Spine_dum2
      direction 0.000000 1.000000 0.000000
      length 12.828261
      axis 0.0 0.0 0.0 xyz
   end
   begin
      id 7
      name Spine_dum3
      direction 0.000000 1.000000 0.000000
      length 12.828261
      axis 0.0 0.0 0.0 xyz
   end
   begin
      id 8
      name Head
      direction 0.000000 1.000000 0.000000
      length 4.527550
      axis 0.0 0.0 0.0 xyz
      dof rx ry rz
   end
   begin
      id 9
      name LeftShoulder
      direction 1.000000 0.000000 0.000000
      length 7.748055
      axis 0.0 0.0 -90.0 xyz
      dof rx ry rz
   end
   begin
      id 10
      name LeftArm
      direction 1.000000 0.000000 0.000000
      length 10.635614
      axis 0.0 0.0 -90.0 xyz
      dof rx ry rz
   end
   begin
      id 11
      name LeftForeArm
      direction 1.000000 0.000000 0.000000
      length 8.346755
      axis 0.0 0.0 -90.0 xyz
      dof ry rz rx
   end
   begin
      id 12
      name LeftHand
      direction 0.000000 0.000000 0.000000
      length 0.000000
      axis 0.0 0.0 -90.0 xyz
      dof rx ry rz
   end
   begin
      id 13
      name LeftHand_dum1
      direction 0.000000 0.000000 0.000000
      length 0.000000
      axis 0.0 0.0 -90.0 xyz
   end
   begin
      id 14
      name LeftHand_dum2
      direction 1.000000 0.000000 0.000000
      length 3.937000
      axis 0.0 0.0 -90.0 xyz
   end
   begin
      id 15
      name LeftHandThumb1
      direction 0.000000 0.000000 1.000000
      length 3.937000
      axis 0.0 0.0 -90.0 xyz
      dof rx rz ry
   end
   begin
      id 16
      name RightShoulder
      direction -1.000000 0.000000 0.000000
      length 7.748055
      axis 0.0 0.0 90.0 xyz
      dof rx ry rz
   end
   begin
      id 17
      name RightArm
      direction -1.000000 0.000000 0.000000
      length 10.635614
      axis 0.0 0.0 90.0 xyz
      dof rx ry rz
   end
   begin
      id 18
      name RightForeArm
      direction -1.000000 0.000000 0.000000
      length 8.346755
      axis 0.0 0.0 90.0 xyz
      dof ry rz rx
   end
   begin
      id 19
      name RightHand
      direction 0.000000 0.000000 0.000000
      length 0.000000
      axis 0.0 0.0 90.0 xyz
      dof rx ry rz
   end
   begin
      id 20
      name RightHand_dum1
      direction 0.000000 0.000000 0.000000
      length 0.000000
      axis 0.0 0.0 90.0 xyz
   end
   begin
      id 21
      name RightHand_dum2
      direction -1.000000 0.000000 0.000000
      length 3.937000
      axis 0.0 0.0 90.0 xyz
   end
   begin
      id 22
      name RightHandThumb1
      direction 0.000000 0.000000 1.000000
      length 3.937000
      axis 0.0 0.0 90.0 xyz
      dof rx rz ry
   end
   begin
      id 23
      name LeftUpLeg
      direction 0.000000 -1.000000 0.000000
      length 15.713025
      axis 0.0 0.0 0.0 xyz
      dof rx ry rz
   end
   begin
      id 24
      name LeftLeg
      direction 0.000000 -1.000000 0.000000
      length 14.435119
      axis 0.0 0.0 0.0 xyz
      dof rx ry rz
   end
   begin
      id 25
      name LeftFoot
      direction 0.000000 -0.258819 0.965926
      length 4.938895
      axis 15.0 0.0 0.0 xyz
      dof rx ry rz
   end
   begin
      id 26
      name LeftToeBase
      direction 0.000000 0.000000 1.000000
      length 2.952750
      axis 0.0 0.0 0.0 xyz
      dof rx ry rz
   end
   begin
      id 27
      name RightUpLeg
      direction 0.000000 -1.000000 0.000000
      length 15.713025
      axis 0.0 0.0 0.0 xyz
      dof rx ry rz
   end
   begin
      id 28
      name RightLeg
      direction 0.000000 -1.000000 0.000000
      length 14.435119
      axis 0.0 0.0 0.0 xyz
      dof rx ry rz
   end
   begin
      id 29
      name RightFoot
      direction 0.000000 -0.258819 0.965926
      length 4.938895
      axis 15.0 0.0 0.0 xyz
      dof rx ry rz
   end
   begin
      id 30
      name RightToeBase
      direction 0.000000 0.000000 1.000000
      length 2.952750
      axis 0.0 0.0 0.0 xyz
      dof rx ry rz
   end
:hierarchy
   begin
      root Spine_dum LeftUpLeg_dum RightUpLeg_dum
      Spine_dum Spine
      LeftUpLeg_dum LeftUpLeg
      RightUpLeg_dum RightUpLeg
      Spine Spine_dum1 Spine_dum2 Spine_dum3
      Spine_dum1 Head
      Spine_dum2 LeftShoulder
      Spine_dum3 RightShoulder
      LeftShoulder LeftArm
      LeftArm LeftForeArm
      LeftForeArm LeftHand
      LeftHand LeftHand_dum1 LeftHand_dum2
      LeftHand_dum1 LeftHandThumb1
      RightShoulder RightArm
      RightArm RightForeArm
      RightForeArm RightHand
      RightHand RightHand_dum1 RightHand_dum2
      RightHand_dum1 RightHandThumb1
      LeftUpLeg LeftLeg
      LeftLeg LeftFoot
      LeftFoot LeftToeBase
      RightUpLeg RightLeg
      RightLeg RightFoot
      RightFoot RightToeBase
   end

# File created by Blade
# Date/Time:  Thu Sep 25 17:54:10 2014
# Frame Rate: 120.000 fps
#------------------------------------------------------
:FULLY-SPECIFIED
:DEGREES
423
root -0.418353 32.562386 -5.535205 30.383503 0.170494 -0.336200
Spine -33.967607 -1.679740 -7.744319
Head 31.550900 -14.797013 -6.883586
LeftShoulder -30.271884 50.311338 26.969840
LeftArm 126.158553 -49.707527 -157.902280
LeftForeArm -57.346025 -0.000000 127.887039
LeftHand -12.750983 -0.000000 -10.431404
LeftHandThumb1 -26.253704 0.000000 33.147579
RightShoulder -81.625400 49.736808 -156.343253
RightArm 55.777193 4.154513 60.900231
RightForeArm 28.283892 -0.000000 132.037844
RightHand 8.081716 -0.000000 3.612585
RightHandThumb1 -24.326973 -0.000000 -32.862282
LeftUpLeg -22.455622 5.217877 0.381880
LeftLeg -2.410885 -0.000000 0.000000
LeftFoot -4.774301 -1.492515 -2.650549
LeftToeBase 2.860248 -0.000000 -0.000000
RightUpLeg -23.057462 -5.820208 4.958488
RightLeg -1.879379 -0.000000 0.000000
RightFoot -8.138145 -1.200170 10.873683
RightToeBase 15.608259 -0.000000 -0.000000
424
root -0.419979 32.561525 -5.528725 30.386196 0.127664 -0.355532
Spine -33.996316 -1.656743 -7.782649
Head 31.493243 -14.475570 -6.425135
LeftShoulder -30.259067 50.425275 26.983028
LeftArm 126.039808 -49.609299 -157.893654
LeftForeArm -57.307804 -0.000000 127.964030
LeftHand -12.778625 -0.000000 -10.481261
LeftHandThumb1 -26.253704 0.000000 33.147579
RightShoulder -81.730907 49.802025 -156.397757
RightArm 55.859192 4.028743 60.900848
RightForeArm 28.029014 0.000000 132.048931
RightHand 8.129083 -0.000000 3.672890
RightHandThumb1 -24.326973 -0.000000 -32.862282
LeftUpLeg -22.433533 5.259387 0.381580
LeftLeg -2.427779 -0.000000 0.000000
LeftFoot -4.787217 -1.463059 -2.624280
LeftToeBase 2.834952 -0.000000 -0.000000
RightUpLeg -23.053748 -5.769933 4.949600
RightLeg -1.871345 -0.000000 0.000000
RightFoot -8.081259 -1.159408 11.051132
RightToeBase 15.431010 -0.000000 -0.000000
425
root -0.421893 32.560229 -5.520578 30.381870 0.107062 -0.366986
Spine -34.018393 -1.649645 -7.820992
Head 31.437342 -14.156202 -5.971379
LeftShoulder -30.232901 50.558695 26.994769
LeftArm 125.958818 -49.487669 -157.927431
LeftForeArm -57.256788 0.000000 128.051989
LeftHand -12.861035 -0.000000 -10.409532
LeftHandThumb1 -26.253704 0.000000 33.147579
RightShoulder -81.823122 49.858763 -156.447015
RightArm 55.936811 3.888536 60.900847
RightForeArm 27.851006 -0.000000 132.062598
RightHand 8.242391 0.000000 3.553692
RightHandThumb1 -24.326973 -0.000000 -32.862282
LeftUpLeg -22.406541 5.256997 0.396489
LeftLeg -2.436347 -0.000000 0.000000
LeftFoot -4.813404 -1.430586 -2.606282
LeftToeBase 2.857677 -0.000000 -0.000000
RightUpLeg -23.035592 -5.757024 4.955608
RightLeg -1.872234 -0.000000 0.000000
RightFoot -8.090650 -1.150303 11.042848
RightToeBase 15.416528 -0.000000 -0.000000
426
root -0.423872 32.559282 -5.512870 30.377635 0.078094 -0.372873
Spine -34.037953 -1.631784 -7.871199
Head 31.360394 -13.813786 -5.483522
LeftShoulder -30.295755 50.790814 26.954811
LeftArm 125.813731 -49.266809 -157.935190
LeftForeArm -57.247071 -0.000000 128.156610
LeftHand -12.859869 -0.000000 -10.438766
LeftHandThumb1 -26.253704 0.000000 33.147579
RightShoulder -81.960313 49.910276 -156.541172
RightArm 55.983195 3.732113 60.910118
RightForeArm 27.671720 -0.000000 132.039085
RightHand 8.286183 -0.000000 3.520556
RightHandThumb1 -24.326973 -0.000000 -32.862282
LeftUpLeg -22.380182 5.262614 0.399780
LeftLeg -2.442825 -0.000000 0.000000
LeftFoot -4.821263 -1.398288 -2.625796
LeftToeBase 2.820267 -0.000000 -0.000000
RightUpLeg -23.019224 -5.742190 4.955016
RightLeg -1.867425 -0.000000 0.000000
RightFoot -8.134087 -1.156188 10.937169
RightToeBase 15.500388 -0.000000 -0.000000
427
root -0.425151 32.559657 -5.503790 30.366053 0.058813 -0.392747
Spine -34.048557 -1.630559 -7.888319
Head 31.280860 -13.471772 -5.030382
LeftShoulder -30.377066 50.969249 26.883352
LeftArm 125.670998 -49.100007 -157.905588
LeftForeArm -57.266045 -0.000000 128.255531
LeftHand -12.891223 -0.000000 -10.461887
LeftHandThumb1 -26.253704 0.000000 33.147579
RightShoulder -82.112718 49.953567 -156.635409
RightArm 56.048408 3.586688 60.942078
RightForeArm 27.573928 0.000000 132.003128
RightHand 8.298713 -0.000000 3.669919
RightHandThumb1 -24.326973 -0.000000 -32.862282
LeftUpLeg -22.350596 5.264658 0.422487
LeftLeg -2.437066 -0.000000 0.000000
LeftFoot -4.838441 -1.371673 -2.608801
LeftToeBase 2.842253 -0.000000 -0.000000
RightUpLeg -23.043714 -5.866062 5.031635
RightLeg -1.779420 -0.000000 0.000000
RightFoot -8.105181 -0.999391 10.997537
RightToeBase 15.336779 -0.000000 -0.000000
